<?xml version="1.0" encoding="UTF-8" standalone="no"?>
<!-- Created with Inkscape (http://www.inkscape.org/) -->

<svg
   xmlns:dc="http://purl.org/dc/elements/1.1/"
   xmlns:cc="http://creativecommons.org/ns#"
   xmlns:rdf="http://www.w3.org/1999/02/22-rdf-syntax-ns#"
   xmlns:svg="http://www.w3.org/2000/svg"
   xmlns="http://www.w3.org/2000/svg"
   xmlns:sodipodi="http://sodipodi.sourceforge.net/DTD/sodipodi-0.dtd"
   xmlns:inkscape="http://www.inkscape.org/namespaces/inkscape"
   width="32pt"
   height="32pt"
   viewBox="0 0 11.28889 11.288889"
   version="1.1"
   id="svg8"
   sodipodi:docname="favicon.svg"
   inkscape:export-filename="/home/onur/Dropbox/lab/osolmaz.github.io/img/favicon.png"
   inkscape:export-xdpi="70.889999"
   inkscape:export-ydpi="70.889999"
   inkscape:version="0.92.2 2405546, 2018-03-11">
  <defs
     id="defs2" />
  <sodipodi:namedview
     id="base"
     pagecolor="#ffffff"
     bordercolor="#666666"
     borderopacity="1.0"
     inkscape:pageopacity="0.0"
     inkscape:pageshadow="2"
     inkscape:zoom="11.2"
     inkscape:cx="-3.9622125"
     inkscape:cy="19.798562"
     inkscape:document-units="mm"
     inkscape:current-layer="layer1"
     showgrid="false"
     units="pt"
     inkscape:snap-bbox="true"
     inkscape:snap-page="true"
     inkscape:window-width="1920"
     inkscape:window-height="1036"
     inkscape:window-x="0"
     inkscape:window-y="20"
     inkscape:window-maximized="0" />
  <metadata
     id="metadata5">
    <rdf:RDF>
      <cc:Work
         rdf:about="">
        <dc:format>image/svg+xml</dc:format>
        <dc:type
           rdf:resource="http://purl.org/dc/dcmitype/StillImage" />
        <dc:title></dc:title>
      </cc:Work>
    </rdf:RDF>
  </metadata>
  <g
     inkscape:label="Layer 1"
     inkscape:groupmode="layer"
     id="layer1"
     transform="translate(0,-285.71113)">
    <rect
       style="opacity:1;vector-effect:none;fill:#000000;fill-opacity:1;stroke:#000000;stroke-width:0.17638889;stroke-linecap:round;stroke-linejoin:round;stroke-miterlimit:4;stroke-dasharray:none;stroke-dashoffset:0;stroke-opacity:1;paint-order:normal"
       id="rect815"
       width="11.288889"
       height="11.288889"
       x="0"
       y="285.71112" />
    <g
       aria-label="OS"
       style="font-style:normal;font-weight:normal;font-size:5.53007555px;line-height:8.6407423px;font-family:sans-serif;text-align:center;letter-spacing:0px;word-spacing:0px;text-anchor:middle;fill:#ffffff;fill-opacity:1;stroke:none;stroke-width:0.26458335px;stroke-linecap:butt;stroke-linejoin:miter;stroke-opacity:1"
       id="text819">
      <path
         d="m 3.3544157,293.81488 q 0,0.24885 0.055301,0.48664 0.060831,0.23227 0.1880225,0.42029 0.1271918,0.18802 0.3318046,0.30415 0.2046128,0.1106 0.4977068,0.1106 0.293094,0 0.4977068,-0.1106 0.2046128,-0.11613 0.3318045,-0.30415 0.1271917,-0.18802 0.1824925,-0.42029 0.060831,-0.23779 0.060831,-0.48664 0,-0.25992 -0.060831,-0.50324 -0.055301,-0.24332 -0.1824925,-0.43135 -0.1271917,-0.19355 -0.3318045,-0.30415 -0.2046128,-0.11613 -0.4977068,-0.11613 -0.293094,0 -0.4977068,0.11613 -0.2046128,0.1106 -0.3318046,0.30415 -0.1271917,0.18803 -0.1880225,0.43135 -0.055301,0.24332 -0.055301,0.50324 z m -0.8682219,0 q 0,-0.43688 0.1327219,-0.81846 0.1327218,-0.38157 0.3815752,-0.66361 0.2488534,-0.28203 0.6083083,-0.4424 0.3594549,-0.16037 0.8184512,-0.16037 0.4589962,0 0.8184511,0.16037 0.359455,0.16037 0.6083084,0.4424 0.2488534,0.28204 0.3815752,0.66361 0.1327218,0.38158 0.1327218,0.81846 0,0.42581 -0.1327218,0.80186 -0.1327218,0.37604 -0.3815752,0.65255 -0.2488534,0.2765 -0.6083084,0.43687 -0.3594549,0.16037 -0.8184511,0.16037 -0.4589963,0 -0.8184512,-0.16037 -0.3594549,-0.16037 -0.6083083,-0.43687 -0.2488534,-0.27651 -0.3815752,-0.65255 -0.1327219,-0.37605 -0.1327219,-0.80186 z"
         style="font-style:normal;font-variant:normal;font-weight:bold;font-stretch:normal;font-family:'Helvetica Neue LT Com';-inkscape-font-specification:'Helvetica Neue LT Com Bold';fill:#ffffff;stroke-width:0.26458335px"
         id="path864" />
      <path
         d="m 7.5481137,294.46189 q 0,0.19909 0.071891,0.33734 0.071891,0.13825 0.1880226,0.22673 0.1216617,0.0829 0.2765038,0.12719 0.1603722,0.0387 0.3373346,0.0387 0.1161316,0 0.2488534,-0.0166 0.1327218,-0.0221 0.2488534,-0.0774 0.1161316,-0.0553 0.1935526,-0.14931 0.077421,-0.0995 0.077421,-0.24885 0,-0.16037 -0.1050715,-0.25992 -0.099541,-0.0995 -0.2654436,-0.1659 -0.1659022,-0.0719 -0.3760451,-0.11613 -0.2101429,-0.0498 -0.4258158,-0.1106 -0.2212031,-0.0553 -0.4313459,-0.13272 -0.2101429,-0.0829 -0.3760452,-0.21015 -0.1659022,-0.12719 -0.2709737,-0.31521 -0.099541,-0.18802 -0.099541,-0.46453 0,-0.30415 0.1271917,-0.52535 0.1327218,-0.22674 0.3428647,-0.37605 0.2101429,-0.14931 0.4755865,-0.2212 0.2654436,-0.0719 0.5308872,-0.0719 0.3096843,0 0.5917181,0.0719 0.287564,0.0664 0.508767,0.2212 0.221203,0.15484 0.3483947,0.39817 0.1327219,0.23779 0.1327219,0.58065 H 9.0578244 q -0.01106,-0.17696 -0.077421,-0.29309 -0.060831,-0.11613 -0.1659023,-0.18249 -0.1050714,-0.0664 -0.2433233,-0.094 -0.1382519,-0.0276 -0.293094,-0.0276 -0.1050714,0 -0.2101429,0.0221 -0.1050714,0.0221 -0.1935526,0.0774 -0.082951,0.0553 -0.1382519,0.14378 -0.055301,0.0829 -0.055301,0.20461 0,0.11613 0.044241,0.18802 0.044241,0.0719 0.1714323,0.13273 0.1327218,0.0553 0.3594549,0.12166 0.2322632,0.0608 0.6027782,0.15484 0.071891,0.0166 0.1880226,0.0498 0.1161316,0.0276 0.2433233,0.0829 0.1327219,0.0498 0.2599136,0.13272 0.1327218,0.083 0.2377932,0.20462 0.1106016,0.12166 0.1769625,0.29309 0.066361,0.1659 0.066361,0.38711 0,0.27097 -0.1050718,0.50323 -0.1050714,0.23227 -0.3152143,0.4037 -0.2046128,0.1659 -0.514297,0.26544 -0.3041542,0.094 -0.7078497,0.094 -0.3262744,0 -0.6359587,-0.083 -0.3041541,-0.0829 -0.5364173,-0.25438 -0.2322632,-0.17143 -0.3760451,-0.43688 -0.1382519,-0.26544 -0.1327218,-0.63043 z"
         style="font-style:normal;font-variant:normal;font-weight:bold;font-stretch:normal;font-family:'Helvetica Neue LT Com';-inkscape-font-specification:'Helvetica Neue LT Com Bold';fill:#ffffff;stroke-width:0.26458335px"
         id="path866" />
    </g>
  </g>
</svg>
